<?xml version="1.0" encoding="utf-8" standalone="no"?>
<!DOCTYPE svg PUBLIC "-//W3C//DTD SVG 1.1//EN"
  "http://www.w3.org/Graphics/SVG/1.1/DTD/svg11.dtd">
<svg xmlns:xlink="http://www.w3.org/1999/xlink" width="288pt" height="216pt" viewBox="0 0 288 216" xmlns="http://www.w3.org/2000/svg" version="1.1">
 <metadata>
  <rdf:RDF xmlns:dc="http://purl.org/dc/elements/1.1/" xmlns:cc="http://creativecommons.org/ns#" xmlns:rdf="http://www.w3.org/1999/02/22-rdf-syntax-ns#">
   <cc:Work>
    <dc:type rdf:resource="http://purl.org/dc/dcmitype/StillImage"/>
    <dc:date>2026-02-04T21:51:08.730911</dc:date>
    <dc:format>image/svg+xml</dc:format>
    <dc:creator>
     <cc:Agent>
      <dc:title>Matplotlib v3.10.0, https://matplotlib.org/</dc:title>
     </cc:Agent>
    </dc:creator>
   </cc:Work>
  </rdf:RDF>
 </metadata>
 <defs>
  <style type="text/css">*{stroke-linejoin: round; stroke-linecap: butt}</style>
 </defs>
 <g id="figure_1">
  <g id="patch_1">
   <path d="M 0 216 
L 288 216 
L 288 0 
L 0 0 
L 0 216 
z
" style="fill: none"/>
  </g>
  <g id="axes_1">
   <g id="patch_2">
    <path d="M 47.72 184.12 
L 277.2 184.12 
L 277.2 41.856 
L 47.72 41.856 
L 47.72 184.12 
z
" style="fill: none"/>
   </g>
   <g id="FillBetweenPolyCollection_1">
    <defs>
     <path id="maa2dc208b1" d="M 162.46 -38.346545 
L 161.714979 -38.346545 
L 161.478624 -39.510809 
L 161.187328 -40.675073 
L 160.834656 -41.839337 
L 160.415034 -43.003601 
L 159.924061 -44.167864 
L 159.35866 -45.332128 
L 158.717024 -46.496392 
L 157.998252 -47.660656 
L 157.201659 -48.82492 
L 156.325732 -49.989183 
L 155.366802 -51.153447 
L 154.317523 -52.317711 
L 153.165349 -53.481975 
L 151.891234 -54.646239 
L 150.468816 -55.810502 
L 148.864351 -56.974766 
L 147.037618 -58.13903 
L 144.943946 -59.303294 
L 142.537367 -60.467558 
L 139.774791 -61.631821 
L 136.620883 -62.796085 
L 133.053224 -63.960349 
L 129.067207 -65.124613 
L 124.680049 -66.288877 
L 119.933378 -67.45314 
L 114.893911 -68.617404 
L 109.651947 -69.781668 
L 104.317657 -70.945932 
L 99.015361 -72.110196 
L 93.876294 -73.274459 
L 89.030499 -74.438723 
L 84.598646 -75.602987 
L 80.684555 -76.767251 
L 77.369137 -77.931515 
L 74.706274 -79.095778 
L 72.720932 -80.260042 
L 71.409549 -81.424306 
L 70.742467 -82.58857 
L 70.668 -83.752833 
L 71.117593 -84.917097 
L 72.011466 -86.081361 
L 73.264174 -87.245625 
L 74.789596 -88.409889 
L 76.505003 -89.574152 
L 78.334011 -90.738416 
L 80.208394 -91.90268 
L 82.06886 -93.066944 
L 83.865004 -94.231208 
L 85.554756 -95.395471 
L 87.103628 -96.559735 
L 88.484079 -97.723999 
L 89.675241 -98.888263 
L 90.663152 -100.052527 
L 91.441516 -101.21679 
L 92.01286 -102.381054 
L 92.389851 -103.545318 
L 92.596425 -104.709582 
L 92.668362 -105.873846 
L 92.652958 -107.038109 
L 92.607553 -108.202373 
L 92.596848 -109.366637 
L 92.689119 -110.530901 
L 92.951651 -111.695165 
L 93.445848 -112.859428 
L 94.222593 -114.023692 
L 95.318414 -115.187956 
L 96.752914 -116.35222 
L 98.52778 -117.516484 
L 100.627452 -118.680747 
L 103.021309 -119.845011 
L 105.667041 -121.009275 
L 108.514734 -122.173539 
L 111.511143 -123.337803 
L 114.603646 -124.502066 
L 117.743479 -125.66633 
L 120.887985 -126.830594 
L 124.001796 -127.994858 
L 127.056999 -129.159122 
L 130.032475 -130.323385 
L 132.912681 -131.487649 
L 135.686164 -132.651913 
L 138.344085 -133.816177 
L 140.878966 -134.980441 
L 143.28381 -136.144704 
L 145.551643 -137.308968 
L 147.675478 -138.473232 
L 149.648613 -139.637496 
L 151.465153 -140.801759 
L 153.120629 -141.966023 
L 154.612595 -143.130287 
L 155.941096 -144.294551 
L 157.108938 -145.458815 
L 158.121739 -146.623078 
L 158.987744 -147.787342 
L 159.717456 -148.951606 
L 160.323112 -150.11587 
L 160.818087 -151.280134 
L 161.216271 -152.444397 
L 161.53149 -153.608661 
L 162.46 -153.608661 
L 162.46 -153.608661 
L 162.46 -152.444397 
L 162.46 -151.280134 
L 162.46 -150.11587 
L 162.46 -148.951606 
L 162.46 -147.787342 
L 162.46 -146.623078 
L 162.46 -145.458815 
L 162.46 -144.294551 
L 162.46 -143.130287 
L 162.46 -141.966023 
L 162.46 -140.801759 
L 162.46 -139.637496 
L 162.46 -138.473232 
L 162.46 -137.308968 
L 162.46 -136.144704 
L 162.46 -134.980441 
L 162.46 -133.816177 
L 162.46 -132.651913 
L 162.46 -131.487649 
L 162.46 -130.323385 
L 162.46 -129.159122 
L 162.46 -127.994858 
L 162.46 -126.830594 
L 162.46 -125.66633 
L 162.46 -124.502066 
L 162.46 -123.337803 
L 162.46 -122.173539 
L 162.46 -121.009275 
L 162.46 -119.845011 
L 162.46 -118.680747 
L 162.46 -117.516484 
L 162.46 -116.35222 
L 162.46 -115.187956 
L 162.46 -114.023692 
L 162.46 -112.859428 
L 162.46 -111.695165 
L 162.46 -110.530901 
L 162.46 -109.366637 
L 162.46 -108.202373 
L 162.46 -107.038109 
L 162.46 -105.873846 
L 162.46 -104.709582 
L 162.46 -103.545318 
L 162.46 -102.381054 
L 162.46 -101.21679 
L 162.46 -100.052527 
L 162.46 -98.888263 
L 162.46 -97.723999 
L 162.46 -96.559735 
L 162.46 -95.395471 
L 162.46 -94.231208 
L 162.46 -93.066944 
L 162.46 -91.90268 
L 162.46 -90.738416 
L 162.46 -89.574152 
L 162.46 -88.409889 
L 162.46 -87.245625 
L 162.46 -86.081361 
L 162.46 -84.917097 
L 162.46 -83.752833 
L 162.46 -82.58857 
L 162.46 -81.424306 
L 162.46 -80.260042 
L 162.46 -79.095778 
L 162.46 -77.931515 
L 162.46 -76.767251 
L 162.46 -75.602987 
L 162.46 -74.438723 
L 162.46 -73.274459 
L 162.46 -72.110196 
L 162.46 -70.945932 
L 162.46 -69.781668 
L 162.46 -68.617404 
L 162.46 -67.45314 
L 162.46 -66.288877 
L 162.46 -65.124613 
L 162.46 -63.960349 
L 162.46 -62.796085 
L 162.46 -61.631821 
L 162.46 -60.467558 
L 162.46 -59.303294 
L 162.46 -58.13903 
L 162.46 -56.974766 
L 162.46 -55.810502 
L 162.46 -54.646239 
L 162.46 -53.481975 
L 162.46 -52.317711 
L 162.46 -51.153447 
L 162.46 -49.989183 
L 162.46 -48.82492 
L 162.46 -47.660656 
L 162.46 -46.496392 
L 162.46 -45.332128 
L 162.46 -44.167864 
L 162.46 -43.003601 
L 162.46 -41.839337 
L 162.46 -40.675073 
L 162.46 -39.510809 
L 162.46 -38.346545 
z
" style="stroke: #404040; stroke-width: 1.25"/>
    </defs>
    <g clip-path="url(#p9a5c7223d5)">
     <use xlink:href="#maa2dc208b1" x="0" y="216" style="fill: #5573cd; stroke: #404040; stroke-width: 1.25"/>
    </g>
   </g>
   <g id="FillBetweenPolyCollection_2">
    <defs>
     <path id="m8ebde6e11c" d="M 163.477185 -42.402809 
L 162.46 -42.402809 
L 162.46 -43.668209 
L 162.46 -44.93361 
L 162.46 -46.19901 
L 162.46 -47.464411 
L 162.46 -48.729811 
L 162.46 -49.995212 
L 162.46 -51.260612 
L 162.46 -52.526013 
L 162.46 -53.791413 
L 162.46 -55.056814 
L 162.46 -56.322214 
L 162.46 -57.587614 
L 162.46 -58.853015 
L 162.46 -60.118415 
L 162.46 -61.383816 
L 162.46 -62.649216 
L 162.46 -63.914617 
L 162.46 -65.180017 
L 162.46 -66.445418 
L 162.46 -67.710818 
L 162.46 -68.976219 
L 162.46 -70.241619 
L 162.46 -71.50702 
L 162.46 -72.77242 
L 162.46 -74.03782 
L 162.46 -75.303221 
L 162.46 -76.568621 
L 162.46 -77.834022 
L 162.46 -79.099422 
L 162.46 -80.364823 
L 162.46 -81.630223 
L 162.46 -82.895624 
L 162.46 -84.161024 
L 162.46 -85.426425 
L 162.46 -86.691825 
L 162.46 -87.957225 
L 162.46 -89.222626 
L 162.46 -90.488026 
L 162.46 -91.753427 
L 162.46 -93.018827 
L 162.46 -94.284228 
L 162.46 -95.549628 
L 162.46 -96.815029 
L 162.46 -98.080429 
L 162.46 -99.34583 
L 162.46 -100.61123 
L 162.46 -101.876631 
L 162.46 -103.142031 
L 162.46 -104.407431 
L 162.46 -105.672832 
L 162.46 -106.938232 
L 162.46 -108.203633 
L 162.46 -109.469033 
L 162.46 -110.734434 
L 162.46 -111.999834 
L 162.46 -113.265235 
L 162.46 -114.530635 
L 162.46 -115.796036 
L 162.46 -117.061436 
L 162.46 -118.326837 
L 162.46 -119.592237 
L 162.46 -120.857637 
L 162.46 -122.123038 
L 162.46 -123.388438 
L 162.46 -124.653839 
L 162.46 -125.919239 
L 162.46 -127.18464 
L 162.46 -128.45004 
L 162.46 -129.715441 
L 162.46 -130.980841 
L 162.46 -132.246242 
L 162.46 -133.511642 
L 162.46 -134.777043 
L 162.46 -136.042443 
L 162.46 -137.307843 
L 162.46 -138.573244 
L 162.46 -139.838644 
L 162.46 -141.104045 
L 162.46 -142.369445 
L 162.46 -143.634846 
L 162.46 -144.900246 
L 162.46 -146.165647 
L 162.46 -147.431047 
L 162.46 -148.696448 
L 162.46 -149.961848 
L 162.46 -151.227249 
L 162.46 -152.492649 
L 162.46 -153.758049 
L 162.46 -155.02345 
L 162.46 -156.28885 
L 162.46 -157.554251 
L 162.46 -158.819651 
L 162.46 -160.085052 
L 162.46 -161.350452 
L 162.46 -162.615853 
L 162.46 -163.881253 
L 162.46 -165.146654 
L 162.46 -166.412054 
L 162.46 -167.677455 
L 163.075841 -167.677455 
L 163.075841 -167.677455 
L 163.277523 -166.412054 
L 163.528347 -165.146654 
L 163.835297 -163.881253 
L 164.205388 -162.615853 
L 164.645687 -161.350452 
L 165.16349 -160.085052 
L 165.766662 -158.819651 
L 166.464144 -157.554251 
L 167.26657 -156.28885 
L 168.186926 -155.02345 
L 169.241115 -153.758049 
L 170.448306 -152.492649 
L 171.830901 -151.227249 
L 173.414031 -149.961848 
L 175.224492 -148.696448 
L 177.289118 -147.431047 
L 179.632691 -146.165647 
L 182.275523 -144.900246 
L 185.230946 -143.634846 
L 188.502963 -142.369445 
L 192.084331 -141.104045 
L 195.955318 -139.838644 
L 200.0833 -138.573244 
L 204.423294 -137.307843 
L 208.919428 -136.042443 
L 213.507222 -134.777043 
L 218.116498 -133.511642 
L 222.67464 -132.246242 
L 227.109917 -130.980841 
L 231.354546 -129.715441 
L 235.347247 -128.45004 
L 239.035082 -127.18464 
L 242.374497 -125.919239 
L 245.331583 -124.653839 
L 247.88171 -123.388438 
L 250.008773 -122.123038 
L 251.704352 -120.857637 
L 252.967097 -119.592237 
L 253.802586 -118.326837 
L 254.223772 -117.061436 
L 254.252 -115.796036 
L 253.918378 -114.530635 
L 253.265125 -113.265235 
L 252.346444 -111.999834 
L 251.228434 -110.734434 
L 249.987648 -109.469033 
L 248.708078 -108.203633 
L 247.476607 -106.938232 
L 246.377208 -105.672832 
L 245.484453 -104.407431 
L 244.857028 -103.142031 
L 244.532054 -101.876631 
L 244.520934 -100.61123 
L 244.807291 -99.34583 
L 245.347315 -98.080429 
L 246.072545 -96.815029 
L 246.894814 -95.549628 
L 247.712858 -94.284228 
L 248.419915 -93.018827 
L 248.911575 -91.753427 
L 249.093152 -90.488026 
L 248.88596 -89.222626 
L 248.232001 -87.957225 
L 247.096795 -86.691825 
L 245.470249 -85.426425 
L 243.36565 -84.161024 
L 240.817053 -82.895624 
L 237.875413 -81.630223 
L 234.603916 -80.364823 
L 231.072983 -79.099422 
L 227.355392 -77.834022 
L 223.521906 -76.568621 
L 219.637702 -75.303221 
L 215.759781 -74.03782 
L 211.935414 -72.77242 
L 208.201599 -71.50702 
L 204.585396 -70.241619 
L 201.104948 -68.976219 
L 197.771002 -67.710818 
L 194.588683 -66.445418 
L 191.559339 -65.180017 
L 188.682269 -63.914617 
L 185.956187 -62.649216 
L 183.380332 -61.383816 
L 180.95514 -60.118415 
L 178.682494 -58.853015 
L 176.565557 -57.587614 
L 174.608266 -56.322214 
L 172.814606 -55.056814 
L 171.187764 -53.791413 
L 169.729317 -52.526013 
L 168.438553 -51.260612 
L 167.312026 -49.995212 
L 166.343384 -48.729811 
L 165.523493 -47.464411 
L 164.840811 -46.19901 
L 164.281957 -44.93361 
L 163.832404 -43.668209 
L 163.477185 -42.402809 
z
" style="stroke: #404040; stroke-width: 1.25"/>
    </defs>
    <g clip-path="url(#p9a5c7223d5)">
     <use xlink:href="#m8ebde6e11c" x="0" y="216" style="fill: #a03434; stroke: #404040; stroke-width: 1.25"/>
    </g>
   </g>
   <g id="patch_3">
    <path d="M 162.46 229.447088 
L 162.46 229.447088 
L 162.46 229.447088 
L 162.46 229.447088 
z
" clip-path="url(#p9a5c7223d5)" style="fill: #5573cd; stroke: #404040; stroke-width: 1.25; stroke-linejoin: miter"/>
   </g>
   <g id="patch_4">
    <path d="M 162.46 229.447088 
L 162.46 229.447088 
L 162.46 229.447088 
L 162.46 229.447088 
z
" clip-path="url(#p9a5c7223d5)" style="fill: #a03434; stroke: #404040; stroke-width: 1.25; stroke-linejoin: miter"/>
   </g>
   <g id="matplotlib.axis_1">
    <g id="xtick_1">
     <g id="line2d_1">
      <defs>
       <path id="mfc4060aa2f" d="M 0 0 
L 0 3.5 
" style="stroke: #000000; stroke-width: 0.8"/>
      </defs>
      <g>
       <use xlink:href="#mfc4060aa2f" x="162.46" y="184.12" style="stroke: #000000; stroke-width: 0.8"/>
      </g>
     </g>
    </g>
    <g id="text_1">
     <!-- Regulation -->
     <g transform="translate(135.760781 202.718437) scale(0.1 -0.1)">
      <defs>
       <path id="DejaVuSans-52" d="M 2841 2188 
Q 3044 2119 3236 1894 
Q 3428 1669 3622 1275 
L 4263 0 
L 3584 0 
L 2988 1197 
Q 2756 1666 2539 1819 
Q 2322 1972 1947 1972 
L 1259 1972 
L 1259 0 
L 628 0 
L 628 4666 
L 2053 4666 
Q 2853 4666 3247 4331 
Q 3641 3997 3641 3322 
Q 3641 2881 3436 2590 
Q 3231 2300 2841 2188 
z
M 1259 4147 
L 1259 2491 
L 2053 2491 
Q 2509 2491 2742 2702 
Q 2975 2913 2975 3322 
Q 2975 3731 2742 3939 
Q 2509 4147 2053 4147 
L 1259 4147 
z
" transform="scale(0.015625)"/>
       <path id="DejaVuSans-65" d="M 3597 1894 
L 3597 1613 
L 953 1613 
Q 991 1019 1311 708 
Q 1631 397 2203 397 
Q 2534 397 2845 478 
Q 3156 559 3463 722 
L 3463 178 
Q 3153 47 2828 -22 
Q 2503 -91 2169 -91 
Q 1331 -91 842 396 
Q 353 884 353 1716 
Q 353 2575 817 3079 
Q 1281 3584 2069 3584 
Q 2775 3584 3186 3129 
Q 3597 2675 3597 1894 
z
M 3022 2063 
Q 3016 2534 2758 2815 
Q 2500 3097 2075 3097 
Q 1594 3097 1305 2825 
Q 1016 2553 972 2059 
L 3022 2063 
z
" transform="scale(0.015625)"/>
       <path id="DejaVuSans-67" d="M 2906 1791 
Q 2906 2416 2648 2759 
Q 2391 3103 1925 3103 
Q 1463 3103 1205 2759 
Q 947 2416 947 1791 
Q 947 1169 1205 825 
Q 1463 481 1925 481 
Q 2391 481 2648 825 
Q 2906 1169 2906 1791 
z
M 3481 434 
Q 3481 -459 3084 -895 
Q 2688 -1331 1869 -1331 
Q 1566 -1331 1297 -1286 
Q 1028 -1241 775 -1147 
L 775 -588 
Q 1028 -725 1275 -790 
Q 1522 -856 1778 -856 
Q 2344 -856 2625 -561 
Q 2906 -266 2906 331 
L 2906 616 
Q 2728 306 2450 153 
Q 2172 0 1784 0 
Q 1141 0 747 490 
Q 353 981 353 1791 
Q 353 2603 747 3093 
Q 1141 3584 1784 3584 
Q 2172 3584 2450 3431 
Q 2728 3278 2906 2969 
L 2906 3500 
L 3481 3500 
L 3481 434 
z
" transform="scale(0.015625)"/>
       <path id="DejaVuSans-75" d="M 544 1381 
L 544 3500 
L 1119 3500 
L 1119 1403 
Q 1119 906 1312 657 
Q 1506 409 1894 409 
Q 2359 409 2629 706 
Q 2900 1003 2900 1516 
L 2900 3500 
L 3475 3500 
L 3475 0 
L 2900 0 
L 2900 538 
Q 2691 219 2414 64 
Q 2138 -91 1772 -91 
Q 1169 -91 856 284 
Q 544 659 544 1381 
z
M 1991 3584 
L 1991 3584 
z
" transform="scale(0.015625)"/>
       <path id="DejaVuSans-6c" d="M 603 4863 
L 1178 4863 
L 1178 0 
L 603 0 
L 603 4863 
z
" transform="scale(0.015625)"/>
       <path id="DejaVuSans-61" d="M 2194 1759 
Q 1497 1759 1228 1600 
Q 959 1441 959 1056 
Q 959 750 1161 570 
Q 1363 391 1709 391 
Q 2188 391 2477 730 
Q 2766 1069 2766 1631 
L 2766 1759 
L 2194 1759 
z
M 3341 1997 
L 3341 0 
L 2766 0 
L 2766 531 
Q 2569 213 2275 61 
Q 1981 -91 1556 -91 
Q 1019 -91 701 211 
Q 384 513 384 1019 
Q 384 1609 779 1909 
Q 1175 2209 1959 2209 
L 2766 2209 
L 2766 2266 
Q 2766 2663 2505 2880 
Q 2244 3097 1772 3097 
Q 1472 3097 1187 3025 
Q 903 2953 641 2809 
L 641 3341 
Q 956 3463 1253 3523 
Q 1550 3584 1831 3584 
Q 2591 3584 2966 3190 
Q 3341 2797 3341 1997 
z
" transform="scale(0.015625)"/>
       <path id="DejaVuSans-74" d="M 1172 4494 
L 1172 3500 
L 2356 3500 
L 2356 3053 
L 1172 3053 
L 1172 1153 
Q 1172 725 1289 603 
Q 1406 481 1766 481 
L 2356 481 
L 2356 0 
L 1766 0 
Q 1100 0 847 248 
Q 594 497 594 1153 
L 594 3053 
L 172 3053 
L 172 3500 
L 594 3500 
L 594 4494 
L 1172 4494 
z
" transform="scale(0.015625)"/>
       <path id="DejaVuSans-69" d="M 603 3500 
L 1178 3500 
L 1178 0 
L 603 0 
L 603 3500 
z
M 603 4863 
L 1178 4863 
L 1178 4134 
L 603 4134 
L 603 4863 
z
" transform="scale(0.015625)"/>
       <path id="DejaVuSans-6f" d="M 1959 3097 
Q 1497 3097 1228 2736 
Q 959 2375 959 1747 
Q 959 1119 1226 758 
Q 1494 397 1959 397 
Q 2419 397 2687 759 
Q 2956 1122 2956 1747 
Q 2956 2369 2687 2733 
Q 2419 3097 1959 3097 
z
M 1959 3584 
Q 2709 3584 3137 3096 
Q 3566 2609 3566 1747 
Q 3566 888 3137 398 
Q 2709 -91 1959 -91 
Q 1206 -91 779 398 
Q 353 888 353 1747 
Q 353 2609 779 3096 
Q 1206 3584 1959 3584 
z
" transform="scale(0.015625)"/>
       <path id="DejaVuSans-6e" d="M 3513 2113 
L 3513 0 
L 2938 0 
L 2938 2094 
Q 2938 2591 2744 2837 
Q 2550 3084 2163 3084 
Q 1697 3084 1428 2787 
Q 1159 2491 1159 1978 
L 1159 0 
L 581 0 
L 581 3500 
L 1159 3500 
L 1159 2956 
Q 1366 3272 1645 3428 
Q 1925 3584 2291 3584 
Q 2894 3584 3203 3211 
Q 3513 2838 3513 2113 
z
" transform="scale(0.015625)"/>
      </defs>
      <use xlink:href="#DejaVuSans-52"/>
      <use xlink:href="#DejaVuSans-65" transform="translate(64.982422 0)"/>
      <use xlink:href="#DejaVuSans-67" transform="translate(126.505859 0)"/>
      <use xlink:href="#DejaVuSans-75" transform="translate(189.982422 0)"/>
      <use xlink:href="#DejaVuSans-6c" transform="translate(253.361328 0)"/>
      <use xlink:href="#DejaVuSans-61" transform="translate(281.144531 0)"/>
      <use xlink:href="#DejaVuSans-74" transform="translate(342.423828 0)"/>
      <use xlink:href="#DejaVuSans-69" transform="translate(381.632812 0)"/>
      <use xlink:href="#DejaVuSans-6f" transform="translate(409.416016 0)"/>
      <use xlink:href="#DejaVuSans-6e" transform="translate(470.597656 0)"/>
     </g>
    </g>
   </g>
   <g id="matplotlib.axis_2">
    <g id="ytick_1">
     <g id="line2d_2">
      <defs>
       <path id="m944f7715ad" d="M 0 0 
L -3.5 0 
" style="stroke: #000000; stroke-width: 0.8"/>
      </defs>
      <g>
       <use xlink:href="#m944f7715ad" x="47.72" y="164.854583" style="stroke: #000000; stroke-width: 0.8"/>
      </g>
     </g>
     <g id="text_2">
      <!-- 0.3 -->
      <g transform="translate(24.816875 168.653802) scale(0.1 -0.1)">
       <defs>
        <path id="DejaVuSans-30" d="M 2034 4250 
Q 1547 4250 1301 3770 
Q 1056 3291 1056 2328 
Q 1056 1369 1301 889 
Q 1547 409 2034 409 
Q 2525 409 2770 889 
Q 3016 1369 3016 2328 
Q 3016 3291 2770 3770 
Q 2525 4250 2034 4250 
z
M 2034 4750 
Q 2819 4750 3233 4129 
Q 3647 3509 3647 2328 
Q 3647 1150 3233 529 
Q 2819 -91 2034 -91 
Q 1250 -91 836 529 
Q 422 1150 422 2328 
Q 422 3509 836 4129 
Q 1250 4750 2034 4750 
z
" transform="scale(0.015625)"/>
        <path id="DejaVuSans-2e" d="M 684 794 
L 1344 794 
L 1344 0 
L 684 0 
L 684 794 
z
" transform="scale(0.015625)"/>
        <path id="DejaVuSans-33" d="M 2597 2516 
Q 3050 2419 3304 2112 
Q 3559 1806 3559 1356 
Q 3559 666 3084 287 
Q 2609 -91 1734 -91 
Q 1441 -91 1130 -33 
Q 819 25 488 141 
L 488 750 
Q 750 597 1062 519 
Q 1375 441 1716 441 
Q 2309 441 2620 675 
Q 2931 909 2931 1356 
Q 2931 1769 2642 2001 
Q 2353 2234 1838 2234 
L 1294 2234 
L 1294 2753 
L 1863 2753 
Q 2328 2753 2575 2939 
Q 2822 3125 2822 3475 
Q 2822 3834 2567 4026 
Q 2313 4219 1838 4219 
Q 1578 4219 1281 4162 
Q 984 4106 628 3988 
L 628 4550 
Q 988 4650 1302 4700 
Q 1616 4750 1894 4750 
Q 2613 4750 3031 4423 
Q 3450 4097 3450 3541 
Q 3450 3153 3228 2886 
Q 3006 2619 2597 2516 
z
" transform="scale(0.015625)"/>
       </defs>
       <use xlink:href="#DejaVuSans-30"/>
       <use xlink:href="#DejaVuSans-2e" transform="translate(63.623047 0)"/>
       <use xlink:href="#DejaVuSans-33" transform="translate(95.410156 0)"/>
      </g>
     </g>
    </g>
    <g id="ytick_2">
     <g id="line2d_3">
      <g>
       <use xlink:href="#m944f7715ad" x="47.72" y="143.323748" style="stroke: #000000; stroke-width: 0.8"/>
      </g>
     </g>
     <g id="text_3">
      <!-- 0.4 -->
      <g transform="translate(24.816875 147.122967) scale(0.1 -0.1)">
       <defs>
        <path id="DejaVuSans-34" d="M 2419 4116 
L 825 1625 
L 2419 1625 
L 2419 4116 
z
M 2253 4666 
L 3047 4666 
L 3047 1625 
L 3713 1625 
L 3713 1100 
L 3047 1100 
L 3047 0 
L 2419 0 
L 2419 1100 
L 313 1100 
L 313 1709 
L 2253 4666 
z
" transform="scale(0.015625)"/>
       </defs>
       <use xlink:href="#DejaVuSans-30"/>
       <use xlink:href="#DejaVuSans-2e" transform="translate(63.623047 0)"/>
       <use xlink:href="#DejaVuSans-34" transform="translate(95.410156 0)"/>
      </g>
     </g>
    </g>
    <g id="ytick_3">
     <g id="line2d_4">
      <g>
       <use xlink:href="#m944f7715ad" x="47.72" y="121.792913" style="stroke: #000000; stroke-width: 0.8"/>
      </g>
     </g>
     <g id="text_4">
      <!-- 0.5 -->
      <g transform="translate(24.816875 125.592132) scale(0.1 -0.1)">
       <defs>
        <path id="DejaVuSans-35" d="M 691 4666 
L 3169 4666 
L 3169 4134 
L 1269 4134 
L 1269 2991 
Q 1406 3038 1543 3061 
Q 1681 3084 1819 3084 
Q 2600 3084 3056 2656 
Q 3513 2228 3513 1497 
Q 3513 744 3044 326 
Q 2575 -91 1722 -91 
Q 1428 -91 1123 -41 
Q 819 9 494 109 
L 494 744 
Q 775 591 1075 516 
Q 1375 441 1709 441 
Q 2250 441 2565 725 
Q 2881 1009 2881 1497 
Q 2881 1984 2565 2268 
Q 2250 2553 1709 2553 
Q 1456 2553 1204 2497 
Q 953 2441 691 2322 
L 691 4666 
z
" transform="scale(0.015625)"/>
       </defs>
       <use xlink:href="#DejaVuSans-30"/>
       <use xlink:href="#DejaVuSans-2e" transform="translate(63.623047 0)"/>
       <use xlink:href="#DejaVuSans-35" transform="translate(95.410156 0)"/>
      </g>
     </g>
    </g>
    <g id="ytick_4">
     <g id="line2d_5">
      <g>
       <use xlink:href="#m944f7715ad" x="47.72" y="100.262078" style="stroke: #000000; stroke-width: 0.8"/>
      </g>
     </g>
     <g id="text_5">
      <!-- 0.6 -->
      <g transform="translate(24.816875 104.061297) scale(0.1 -0.1)">
       <defs>
        <path id="DejaVuSans-36" d="M 2113 2584 
Q 1688 2584 1439 2293 
Q 1191 2003 1191 1497 
Q 1191 994 1439 701 
Q 1688 409 2113 409 
Q 2538 409 2786 701 
Q 3034 994 3034 1497 
Q 3034 2003 2786 2293 
Q 2538 2584 2113 2584 
z
M 3366 4563 
L 3366 3988 
Q 3128 4100 2886 4159 
Q 2644 4219 2406 4219 
Q 1781 4219 1451 3797 
Q 1122 3375 1075 2522 
Q 1259 2794 1537 2939 
Q 1816 3084 2150 3084 
Q 2853 3084 3261 2657 
Q 3669 2231 3669 1497 
Q 3669 778 3244 343 
Q 2819 -91 2113 -91 
Q 1303 -91 875 529 
Q 447 1150 447 2328 
Q 447 3434 972 4092 
Q 1497 4750 2381 4750 
Q 2619 4750 2861 4703 
Q 3103 4656 3366 4563 
z
" transform="scale(0.015625)"/>
       </defs>
       <use xlink:href="#DejaVuSans-30"/>
       <use xlink:href="#DejaVuSans-2e" transform="translate(63.623047 0)"/>
       <use xlink:href="#DejaVuSans-36" transform="translate(95.410156 0)"/>
      </g>
     </g>
    </g>
    <g id="ytick_5">
     <g id="line2d_6">
      <g>
       <use xlink:href="#m944f7715ad" x="47.72" y="78.731243" style="stroke: #000000; stroke-width: 0.8"/>
      </g>
     </g>
     <g id="text_6">
      <!-- 0.7 -->
      <g transform="translate(24.816875 82.530462) scale(0.1 -0.1)">
       <defs>
        <path id="DejaVuSans-37" d="M 525 4666 
L 3525 4666 
L 3525 4397 
L 1831 0 
L 1172 0 
L 2766 4134 
L 525 4134 
L 525 4666 
z
" transform="scale(0.015625)"/>
       </defs>
       <use xlink:href="#DejaVuSans-30"/>
       <use xlink:href="#DejaVuSans-2e" transform="translate(63.623047 0)"/>
       <use xlink:href="#DejaVuSans-37" transform="translate(95.410156 0)"/>
      </g>
     </g>
    </g>
    <g id="ytick_6">
     <g id="line2d_7">
      <g>
       <use xlink:href="#m944f7715ad" x="47.72" y="57.200408" style="stroke: #000000; stroke-width: 0.8"/>
      </g>
     </g>
     <g id="text_7">
      <!-- 0.8 -->
      <g transform="translate(24.816875 60.999627) scale(0.1 -0.1)">
       <defs>
        <path id="DejaVuSans-38" d="M 2034 2216 
Q 1584 2216 1326 1975 
Q 1069 1734 1069 1313 
Q 1069 891 1326 650 
Q 1584 409 2034 409 
Q 2484 409 2743 651 
Q 3003 894 3003 1313 
Q 3003 1734 2745 1975 
Q 2488 2216 2034 2216 
z
M 1403 2484 
Q 997 2584 770 2862 
Q 544 3141 544 3541 
Q 544 4100 942 4425 
Q 1341 4750 2034 4750 
Q 2731 4750 3128 4425 
Q 3525 4100 3525 3541 
Q 3525 3141 3298 2862 
Q 3072 2584 2669 2484 
Q 3125 2378 3379 2068 
Q 3634 1759 3634 1313 
Q 3634 634 3220 271 
Q 2806 -91 2034 -91 
Q 1263 -91 848 271 
Q 434 634 434 1313 
Q 434 1759 690 2068 
Q 947 2378 1403 2484 
z
M 1172 3481 
Q 1172 3119 1398 2916 
Q 1625 2713 2034 2713 
Q 2441 2713 2670 2916 
Q 2900 3119 2900 3481 
Q 2900 3844 2670 4047 
Q 2441 4250 2034 4250 
Q 1625 4250 1398 4047 
Q 1172 3844 1172 3481 
z
" transform="scale(0.015625)"/>
       </defs>
       <use xlink:href="#DejaVuSans-30"/>
       <use xlink:href="#DejaVuSans-2e" transform="translate(63.623047 0)"/>
       <use xlink:href="#DejaVuSans-38" transform="translate(95.410156 0)"/>
      </g>
     </g>
    </g>
    <g id="text_8">
     <!-- GC(exon) -->
     <g transform="translate(18.737187 136.2755) rotate(-90) scale(0.1 -0.1)">
      <defs>
       <path id="DejaVuSans-47" d="M 3809 666 
L 3809 1919 
L 2778 1919 
L 2778 2438 
L 4434 2438 
L 4434 434 
Q 4069 175 3628 42 
Q 3188 -91 2688 -91 
Q 1594 -91 976 548 
Q 359 1188 359 2328 
Q 359 3472 976 4111 
Q 1594 4750 2688 4750 
Q 3144 4750 3555 4637 
Q 3966 4525 4313 4306 
L 4313 3634 
Q 3963 3931 3569 4081 
Q 3175 4231 2741 4231 
Q 1884 4231 1454 3753 
Q 1025 3275 1025 2328 
Q 1025 1384 1454 906 
Q 1884 428 2741 428 
Q 3075 428 3337 486 
Q 3600 544 3809 666 
z
" transform="scale(0.015625)"/>
       <path id="DejaVuSans-43" d="M 4122 4306 
L 4122 3641 
Q 3803 3938 3442 4084 
Q 3081 4231 2675 4231 
Q 1875 4231 1450 3742 
Q 1025 3253 1025 2328 
Q 1025 1406 1450 917 
Q 1875 428 2675 428 
Q 3081 428 3442 575 
Q 3803 722 4122 1019 
L 4122 359 
Q 3791 134 3420 21 
Q 3050 -91 2638 -91 
Q 1578 -91 968 557 
Q 359 1206 359 2328 
Q 359 3453 968 4101 
Q 1578 4750 2638 4750 
Q 3056 4750 3426 4639 
Q 3797 4528 4122 4306 
z
" transform="scale(0.015625)"/>
       <path id="DejaVuSans-28" d="M 1984 4856 
Q 1566 4138 1362 3434 
Q 1159 2731 1159 2009 
Q 1159 1288 1364 580 
Q 1569 -128 1984 -844 
L 1484 -844 
Q 1016 -109 783 600 
Q 550 1309 550 2009 
Q 550 2706 781 3412 
Q 1013 4119 1484 4856 
L 1984 4856 
z
" transform="scale(0.015625)"/>
       <path id="DejaVuSans-78" d="M 3513 3500 
L 2247 1797 
L 3578 0 
L 2900 0 
L 1881 1375 
L 863 0 
L 184 0 
L 1544 1831 
L 300 3500 
L 978 3500 
L 1906 2253 
L 2834 3500 
L 3513 3500 
z
" transform="scale(0.015625)"/>
       <path id="DejaVuSans-29" d="M 513 4856 
L 1013 4856 
Q 1481 4119 1714 3412 
Q 1947 2706 1947 2009 
Q 1947 1309 1714 600 
Q 1481 -109 1013 -844 
L 513 -844 
Q 928 -128 1133 580 
Q 1338 1288 1338 2009 
Q 1338 2731 1133 3434 
Q 928 4138 513 4856 
z
" transform="scale(0.015625)"/>
      </defs>
      <use xlink:href="#DejaVuSans-47"/>
      <use xlink:href="#DejaVuSans-43" transform="translate(77.490234 0)"/>
      <use xlink:href="#DejaVuSans-28" transform="translate(147.314453 0)"/>
      <use xlink:href="#DejaVuSans-65" transform="translate(186.328125 0)"/>
      <use xlink:href="#DejaVuSans-78" transform="translate(246.101562 0)"/>
      <use xlink:href="#DejaVuSans-6f" transform="translate(302.15625 0)"/>
      <use xlink:href="#DejaVuSans-6e" transform="translate(363.337891 0)"/>
      <use xlink:href="#DejaVuSans-29" transform="translate(426.716797 0)"/>
     </g>
    </g>
   </g>
   <g id="line2d_8">
    <path d="M 159.6475 160.117393 
L 159.6475 79.927401 
" clip-path="url(#p9a5c7223d5)" style="fill: none; stroke: #404040; stroke-width: 1.875; stroke-linecap: square"/>
   </g>
   <g id="line2d_9">
    <path d="M 159.6475 135.498884 
L 159.6475 102.819504 
" clip-path="url(#p9a5c7223d5)" style="fill: none; stroke: #404040; stroke-width: 5.625; stroke-linecap: square"/>
   </g>
   <g id="line2d_10">
    <path d="M 159.6475 122.461573 
" clip-path="url(#p9a5c7223d5)" style="fill: none; stroke: #404040; stroke-width: 1.5; stroke-linecap: square"/>
    <defs>
     <path id="m4d6bc9f82c" d="M 2.34375 0 
L -2.34375 -0 
" style="stroke: #ffffff; stroke-width: 1.125"/>
    </defs>
    <g clip-path="url(#p9a5c7223d5)">
     <use xlink:href="#m4d6bc9f82c" x="159.6475" y="122.461573" style="fill: #ffffff; stroke: #ffffff; stroke-width: 1.125"/>
    </g>
   </g>
   <g id="line2d_11">
    <path d="M 165.2725 155.285323 
L 165.2725 66.634413 
" clip-path="url(#p9a5c7223d5)" style="fill: none; stroke: #404040; stroke-width: 1.875; stroke-linecap: square"/>
   </g>
   <g id="line2d_12">
    <path d="M 165.2725 129.189388 
L 165.2725 95.383085 
" clip-path="url(#p9a5c7223d5)" style="fill: none; stroke: #404040; stroke-width: 5.625; stroke-linecap: square"/>
   </g>
   <g id="line2d_13">
    <path d="M 165.2725 109.268639 
" clip-path="url(#p9a5c7223d5)" style="fill: none; stroke: #404040; stroke-width: 1.5; stroke-linecap: square"/>
    <g clip-path="url(#p9a5c7223d5)">
     <use xlink:href="#m4d6bc9f82c" x="165.2725" y="109.268639" style="fill: #ffffff; stroke: #ffffff; stroke-width: 1.125"/>
    </g>
   </g>
   <g id="patch_5">
    <path d="M 47.72 184.12 
L 47.72 41.856 
" style="fill: none; stroke: #000000; stroke-width: 0.8; stroke-linejoin: miter; stroke-linecap: square"/>
   </g>
   <g id="patch_6">
    <path d="M 277.2 184.12 
L 277.2 41.856 
" style="fill: none; stroke: #000000; stroke-width: 0.8; stroke-linejoin: miter; stroke-linecap: square"/>
   </g>
   <g id="patch_7">
    <path d="M 47.72 184.12 
L 277.2 184.12 
" style="fill: none; stroke: #000000; stroke-width: 0.8; stroke-linejoin: miter; stroke-linecap: square"/>
   </g>
   <g id="patch_8">
    <path d="M 47.72 41.856 
L 277.2 41.856 
" style="fill: none; stroke: #000000; stroke-width: 0.8; stroke-linejoin: miter; stroke-linecap: square"/>
   </g>
   <g id="text_9">
    <!-- GC(exon) -->
    <g transform="translate(134.515 22.418625) scale(0.12 -0.12)">
     <use xlink:href="#DejaVuSans-47"/>
     <use xlink:href="#DejaVuSans-43" transform="translate(77.490234 0)"/>
     <use xlink:href="#DejaVuSans-28" transform="translate(147.314453 0)"/>
     <use xlink:href="#DejaVuSans-65" transform="translate(186.328125 0)"/>
     <use xlink:href="#DejaVuSans-78" transform="translate(246.101562 0)"/>
     <use xlink:href="#DejaVuSans-6f" transform="translate(302.15625 0)"/>
     <use xlink:href="#DejaVuSans-6e" transform="translate(363.337891 0)"/>
     <use xlink:href="#DejaVuSans-29" transform="translate(426.716797 0)"/>
    </g>
    <!-- p = 6.156e-02 -->
    <g transform="translate(119.140937 35.856) scale(0.12 -0.12)">
     <defs>
      <path id="DejaVuSans-70" d="M 1159 525 
L 1159 -1331 
L 581 -1331 
L 581 3500 
L 1159 3500 
L 1159 2969 
Q 1341 3281 1617 3432 
Q 1894 3584 2278 3584 
Q 2916 3584 3314 3078 
Q 3713 2572 3713 1747 
Q 3713 922 3314 415 
Q 2916 -91 2278 -91 
Q 1894 -91 1617 61 
Q 1341 213 1159 525 
z
M 3116 1747 
Q 3116 2381 2855 2742 
Q 2594 3103 2138 3103 
Q 1681 3103 1420 2742 
Q 1159 2381 1159 1747 
Q 1159 1113 1420 752 
Q 1681 391 2138 391 
Q 2594 391 2855 752 
Q 3116 1113 3116 1747 
z
" transform="scale(0.015625)"/>
      <path id="DejaVuSans-20" transform="scale(0.015625)"/>
      <path id="DejaVuSans-3d" d="M 678 2906 
L 4684 2906 
L 4684 2381 
L 678 2381 
L 678 2906 
z
M 678 1631 
L 4684 1631 
L 4684 1100 
L 678 1100 
L 678 1631 
z
" transform="scale(0.015625)"/>
      <path id="DejaVuSans-31" d="M 794 531 
L 1825 531 
L 1825 4091 
L 703 3866 
L 703 4441 
L 1819 4666 
L 2450 4666 
L 2450 531 
L 3481 531 
L 3481 0 
L 794 0 
L 794 531 
z
" transform="scale(0.015625)"/>
      <path id="DejaVuSans-2d" d="M 313 2009 
L 1997 2009 
L 1997 1497 
L 313 1497 
L 313 2009 
z
" transform="scale(0.015625)"/>
      <path id="DejaVuSans-32" d="M 1228 531 
L 3431 531 
L 3431 0 
L 469 0 
L 469 531 
Q 828 903 1448 1529 
Q 2069 2156 2228 2338 
Q 2531 2678 2651 2914 
Q 2772 3150 2772 3378 
Q 2772 3750 2511 3984 
Q 2250 4219 1831 4219 
Q 1534 4219 1204 4116 
Q 875 4013 500 3803 
L 500 4441 
Q 881 4594 1212 4672 
Q 1544 4750 1819 4750 
Q 2544 4750 2975 4387 
Q 3406 4025 3406 3419 
Q 3406 3131 3298 2873 
Q 3191 2616 2906 2266 
Q 2828 2175 2409 1742 
Q 1991 1309 1228 531 
z
" transform="scale(0.015625)"/>
     </defs>
     <use xlink:href="#DejaVuSans-70"/>
     <use xlink:href="#DejaVuSans-20" transform="translate(63.476562 0)"/>
     <use xlink:href="#DejaVuSans-3d" transform="translate(95.263672 0)"/>
     <use xlink:href="#DejaVuSans-20" transform="translate(179.052734 0)"/>
     <use xlink:href="#DejaVuSans-36" transform="translate(210.839844 0)"/>
     <use xlink:href="#DejaVuSans-2e" transform="translate(274.462891 0)"/>
     <use xlink:href="#DejaVuSans-31" transform="translate(306.25 0)"/>
     <use xlink:href="#DejaVuSans-35" transform="translate(369.873047 0)"/>
     <use xlink:href="#DejaVuSans-36" transform="translate(433.496094 0)"/>
     <use xlink:href="#DejaVuSans-65" transform="translate(497.119141 0)"/>
     <use xlink:href="#DejaVuSans-2d" transform="translate(558.642578 0)"/>
     <use xlink:href="#DejaVuSans-30" transform="translate(594.726562 0)"/>
     <use xlink:href="#DejaVuSans-32" transform="translate(658.349609 0)"/>
    </g>
   </g>
   <g id="legend_1">
    <g id="patch_9">
     <path d="M 54.72 93.890375 
L 112.118437 93.890375 
Q 114.118437 93.890375 114.118437 91.890375 
L 114.118437 48.856 
Q 114.118437 46.856 112.118437 46.856 
L 54.72 46.856 
Q 52.72 46.856 52.72 48.856 
L 52.72 91.890375 
Q 52.72 93.890375 54.72 93.890375 
z
" style="fill: #ffffff; opacity: 0.8; stroke: #cccccc; stroke-linejoin: miter"/>
    </g>
    <g id="text_10">
     <!-- Regulation -->
     <g transform="translate(56.72 58.454438) scale(0.1 -0.1)">
      <use xlink:href="#DejaVuSans-52"/>
      <use xlink:href="#DejaVuSans-65" transform="translate(64.982422 0)"/>
      <use xlink:href="#DejaVuSans-67" transform="translate(126.505859 0)"/>
      <use xlink:href="#DejaVuSans-75" transform="translate(189.982422 0)"/>
      <use xlink:href="#DejaVuSans-6c" transform="translate(253.361328 0)"/>
      <use xlink:href="#DejaVuSans-61" transform="translate(281.144531 0)"/>
      <use xlink:href="#DejaVuSans-74" transform="translate(342.423828 0)"/>
      <use xlink:href="#DejaVuSans-69" transform="translate(381.632812 0)"/>
      <use xlink:href="#DejaVuSans-6f" transform="translate(409.416016 0)"/>
      <use xlink:href="#DejaVuSans-6e" transform="translate(470.597656 0)"/>
     </g>
    </g>
    <g id="patch_10">
     <path d="M 66.237969 73.132563 
L 86.237969 73.132563 
L 86.237969 66.132563 
L 66.237969 66.132563 
z
" style="fill: #5573cd; stroke: #404040; stroke-width: 1.25; stroke-linejoin: miter"/>
    </g>
    <g id="text_11">
     <!-- 0 -->
     <g transform="translate(94.237969 73.132563) scale(0.1 -0.1)">
      <use xlink:href="#DejaVuSans-30"/>
     </g>
    </g>
    <g id="patch_11">
     <path d="M 66.237969 87.810688 
L 86.237969 87.810688 
L 86.237969 80.810688 
L 66.237969 80.810688 
z
" style="fill: #a03434; stroke: #404040; stroke-width: 1.25; stroke-linejoin: miter"/>
    </g>
    <g id="text_12">
     <!-- 1 -->
     <g transform="translate(94.237969 87.810688) scale(0.1 -0.1)">
      <use xlink:href="#DejaVuSans-31"/>
     </g>
    </g>
   </g>
  </g>
 </g>
 <defs>
  <clipPath id="p9a5c7223d5">
   <rect x="47.72" y="41.856" width="229.48" height="142.264"/>
  </clipPath>
 </defs>
</svg>
